<?xml version="1.0" encoding="UTF-8"?>
<svg version="1.1" xmlns="http://www.w3.org/2000/svg" width="512" height="512">
<path d="M0 0 C0.84746253 -0.0039821 1.69492506 -0.00796419 2.56806827 -0.01206696 C3.95716903 -0.00332844 3.95716903 -0.00332844 5.37433243 0.00558662 C6.36188625 0.00387777 7.34944006 0.00216892 8.36691976 0.00040829 C11.68507662 -0.00289312 15.00303249 0.00812793 18.32117081 0.01904488 C20.69611481 0.01960885 23.07105916 0.0192927 25.44600296 0.01815987 C31.23140895 0.01764456 37.0167488 0.02632729 42.80213967 0.03903519 C49.53384524 0.05332771 56.26554138 0.05632512 62.99726 0.05861153 C75.00221691 0.06298893 87.00714663 0.07629927 99.01208878 0.09521675 C110.67387125 0.11357437 122.33564634 0.12773145 133.99744034 0.13623238 C135.0756629 0.13702055 135.0756629 0.13702055 136.17566773 0.13782464 C139.78174632 0.14043471 143.38782496 0.14296213 146.99390364 0.14544845 C176.91062892 0.16618237 206.82732247 0.2015578 236.74402237 0.24609566 C236.74641072 0.98877788 236.74879908 1.73146009 236.7512598 2.49664783 C236.81038996 20.56585674 236.88592728 38.63492882 236.97973728 56.70399189 C237.02470722 65.44205393 237.06411911 74.1800751 237.09045792 82.9182148 C237.11342831 90.53417864 237.14681555 98.15001329 237.19272393 105.76587468 C237.21666916 109.79861483 237.23538938 113.83122693 237.24163628 117.86403656 C237.24768131 121.66029002 237.26765977 125.45621577 237.29829788 129.25234795 C237.30708749 130.64508667 237.31079877 132.03786821 237.30903053 133.43063354 C237.30737727 135.33381415 237.32584706 137.23698038 237.34529495 139.14006233 C237.3522084 140.73706868 237.3522084 140.73706868 237.35926151 142.36633778 C237.79742594 145.64579676 238.94398266 147.50850746 240.74402237 150.24609566 C240.74402237 150.90609566 240.74402237 151.56609566 240.74402237 152.24609566 C245.57517254 154.20467005 249.3335114 155.37240238 254.57158279 155.40431404 C255.78734497 155.41410286 257.00310715 155.42389168 258.2557106 155.43397713 C259.60492286 155.43988127 260.95413552 155.44569172 262.30334854 155.45141792 C263.72249512 155.46099694 265.14163884 155.47100704 266.56077957 155.4814167 C270.41583264 155.50846924 274.27089796 155.52947692 278.12599349 155.54941869 C282.15391001 155.57127608 286.18178877 155.59866598 290.20967484 155.62547493 C297.83815363 155.67540515 305.46665338 155.72034276 313.09517318 155.76349729 C321.77950387 155.81286685 330.46379667 155.86778602 339.14809072 155.92317688 C357.01336609 156.03700199 374.87867722 156.14383989 392.74402237 156.24609566 C392.81267509 197.2752215 392.86554434 238.30433986 392.89721836 279.33351165 C392.90097052 284.17636201 392.90485348 289.01921226 392.90881729 293.86206245 C392.90960422 294.82619485 392.91039115 295.79032725 392.91120193 296.78367578 C392.92425914 312.39885906 392.94791473 328.01400924 392.97548076 343.62917287 C393.00352617 359.64939041 393.0201968 375.66959059 393.02628785 391.68983167 C393.03040609 401.5767645 393.04341758 411.46360376 393.06777177 421.35050779 C393.08361828 428.1284918 393.08842519 434.90642738 393.0845265 441.68442858 C393.08260327 445.59614968 393.08557075 449.50770718 393.10163879 453.41939926 C393.11624618 457.00165446 393.11696943 460.58363614 393.10671905 464.16590398 C393.10485293 466.07348943 393.11778421 467.9810717 393.1312663 469.88861042 C393.09897822 476.04592075 393.01888581 480.92655991 389.74402237 486.24609566 C386.32498957 488.58158387 383.2385622 488.49758761 379.17502308 488.50057125 C378.51343995 488.50377773 377.85185682 488.50698421 377.17022571 488.51028785 C374.94364363 488.51861813 372.71732843 488.5126531 370.49074173 488.50679207 C368.88217902 488.50981137 367.27361775 488.51369974 365.66505903 488.51838464 C361.23711109 488.52870185 356.80924379 488.52647338 352.38128912 488.52220404 C347.60888577 488.51974356 342.83650217 488.52874251 338.06410599 488.53624153 C328.71163824 488.54900934 319.35919918 488.55077964 310.00672419 488.54844127 C302.40722065 488.54666032 294.80772584 488.54840294 287.20822334 488.55266571 C285.58761538 488.55355849 285.58761538 488.55355849 283.93426786 488.55446931 C281.73963265 488.55568103 279.54499744 488.55689516 277.35036223 488.55811169 C256.75604043 488.56899518 236.16173498 488.56682087 215.56741225 488.56072684 C196.71463261 488.55555658 177.86190462 488.56681459 159.00913519 488.58582506 C139.66429723 488.60518262 120.31948373 488.61346315 100.97463602 488.60970181 C90.10868057 488.60778665 79.24276909 488.61030795 68.37682152 488.62441635 C59.12694361 488.6363046 49.87713673 488.63776383 40.62725789 488.62562618 C35.90566819 488.61971957 31.1842086 488.61868708 26.46262741 488.63062859 C22.14293779 488.64142693 17.82348786 488.63845667 13.50380974 488.6243669 C11.93857493 488.6217032 10.3733217 488.62413855 8.80810488 488.63210277 C6.68473239 488.64215966 4.56220103 488.63383002 2.4388628 488.62082577 C1.25820226 488.62088078 0.07754172 488.6209358 -1.13889641 488.62099248 C-4.70311916 488.19231716 -6.50572147 487.55389095 -9.25597763 485.24609566 C-11.46492644 480.67379879 -11.54023405 476.17459269 -11.51045322 471.18719769 C-11.5136597 470.38883616 -11.51686618 469.59047464 -11.52016982 468.76792035 C-11.5284826 466.08809218 -11.52254106 463.40848676 -11.51667404 460.72865486 C-11.51969414 458.78980771 -11.5235829 456.85096175 -11.52826661 454.9121179 C-11.53857357 449.58042814 -11.53635793 444.24880542 -11.53208601 438.91711009 C-11.5296237 433.16855427 -11.53862677 427.42001479 -11.5461235 421.67146492 C-11.55888607 410.4082294 -11.56066227 399.1450177 -11.55832324 387.88177616 C-11.55654175 378.72913428 -11.55828609 369.57649965 -11.56254768 360.42385864 C-11.56314287 359.12227286 -11.56373806 357.82068708 -11.56435129 356.4796593 C-11.56556301 353.83567862 -11.56677714 351.19169794 -11.56799366 348.54771727 C-11.57578315 330.79008471 -11.57969839 313.03245527 -11.57567692 295.27482128 C-11.57552054 294.58034958 -11.57536417 293.88587789 -11.57520305 293.17036159 C-11.57439726 289.65046412 -11.57355149 286.13056666 -11.57268975 282.6106692 C-11.57251866 281.91159998 -11.57234757 281.21253076 -11.5721713 280.49227762 C-11.57182465 279.07859009 -11.57147612 277.66490257 -11.57112572 276.25121504 C-11.5657677 254.2508762 -11.57370102 232.25057742 -11.59215927 210.25024605 C-11.61287056 185.53555254 -11.62357261 160.8208848 -11.61958379 136.10618204 C-11.61766909 123.01907308 -11.62018543 109.93200064 -11.63429832 96.84489822 C-11.64619015 85.70448749 -11.64764171 74.56413575 -11.63550816 63.42372424 C-11.62960417 57.73785383 -11.62856198 52.05209143 -11.64051056 46.3662281 C-11.65131749 41.16325936 -11.64832808 35.9604895 -11.63424888 30.75753026 C-11.6315876 28.87334461 -11.63401304 26.98914363 -11.64198474 25.10497297 C-11.65205891 22.54668566 -11.64369623 19.98909396 -11.63070774 17.43083477 C-11.64167176 16.3299275 -11.64167176 16.3299275 -11.65285727 15.20677969 C-11.59902469 10.10204616 -10.69879286 6.6511016 -8.25597763 2.24609566 C-5.55800818 0.24930623 -3.30519446 -0.00343575 0 0 Z " fill="#99736A" transform="translate(65.25597763061523,11.753904342651367)"/>
<path d="M0 0 C3.44177525 1.48337945 5.67520015 3.42602132 8.31536865 6.06813049 C9.17069687 6.91926422 10.02602509 7.77039795 10.90727234 8.64732361 C11.83731583 9.5829866 12.76735931 10.5186496 13.72558594 11.48266602 C14.72081534 12.47682222 15.71647761 13.47054524 16.71253967 14.46386719 C19.41309405 17.1595777 22.10736291 19.86149094 24.80041409 22.56469464 C27.61717706 25.39024046 30.43921007 28.21051367 33.26055908 31.03147888 C37.99499438 35.76685038 42.7255417 40.50607778 47.45361328 45.24780273 C52.92735546 50.73729262 58.40632916 56.22151592 63.88831687 61.70277077 C69.15644079 66.97028544 74.42170707 72.24064629 79.6853714 77.51261711 C81.92861846 79.75940316 84.17272042 82.00533025 86.41747284 84.25061226 C89.05622498 86.89036526 91.692425 89.53264067 94.32662773 92.17693329 C95.29651879 93.14975698 96.26726977 94.12172417 97.2389164 95.09279442 C98.55911289 96.41250387 99.87594356 97.7355779 101.19256592 99.05885315 C101.93217937 99.80014245 102.67179283 100.54143175 103.43381882 101.30518436 C105 103 105 103 105 104 C92.03076351 104.0926089 79.06160545 104.16371889 66.09210587 104.20724869 C60.07007432 104.22813898 54.0482687 104.25648342 48.02636719 104.30175781 C42.21679203 104.3451634 36.40743442 104.36912624 30.59770966 104.37950897 C28.37927576 104.3869098 26.160854 104.40136157 23.94251251 104.42292023 C20.83934129 104.45188334 17.73707332 104.4559589 14.63378906 104.45410156 C13.71309631 104.46848267 12.79240356 104.48286377 11.84381104 104.49768066 C5.61003501 104.45720738 5.61003501 104.45720738 2.46038818 102.09661865 C-0.54829414 97.77717842 -0.13372241 93.88432502 -0.11352539 88.77685547 C-0.11367142 87.8207135 -0.11381744 86.86457153 -0.1139679 85.87945557 C-0.1132694 82.70867673 -0.1054799 79.53795612 -0.09765625 76.3671875 C-0.09579185 74.17286206 -0.09436805 71.97853621 -0.09336853 69.78421021 C-0.0895451 64.00065976 -0.07971628 58.2171343 -0.06866455 52.43359375 C-0.0584467 46.53515969 -0.05387011 40.6367216 -0.04882812 34.73828125 C-0.03809388 23.15884317 -0.02101953 11.57942366 0 0 Z " fill="#99736A" transform="translate(331,34)"/>
</svg>
